<svg width="730.5" height="154.351" viewBox="0 0 730.5 154.351" xmlns="http://www.w3.org/2000/svg"><g id="svgGroup" stroke-linecap="round" fill-rule="nonzero" font-size="9pt" stroke="#ff5522" stroke-width="1mm" fill="#ff5522" style="stroke:#ff5522;stroke-width:1mm;fill:#ff5522"><path d="M 176.55 24.15 L 177.15 23.7 Q 178.35 21.45 180 18.9 Q 181.35 18 182.7 18 Q 183 18 184.35 18.525 Q 185.7 19.05 185.85 19.2 Q 190.05 17.4 194.55 16.05 Q 199.05 14.7 203.7 14.7 Q 204.9 14.7 207.525 15.075 Q 210.15 15.45 212.475 16.2 Q 214.8 16.95 214.8 18.45 Q 214.8 18.75 214.65 19.275 Q 214.5 19.8 214.35 20.1 L 213 22.65 Q 212.25 24.3 211.8 26.175 Q 211.35 28.05 210.75 29.7 Q 210.6 30 210.15 31.425 Q 209.7 32.85 209.25 32.85 L 208.95 32.85 Q 208.05 32.25 207.825 31.2 Q 207.6 30.15 207.6 28.65 Q 207.6 26.55 207.45 24.225 Q 207.3 21.9 205.725 20.25 Q 204.15 18.6 199.65 18.6 Q 195.6 18.6 191.775 19.95 Q 187.95 21.3 184.5 23.25 Q 181.2 27.9 177.525 36.15 Q 173.85 44.4 170.325 54.45 Q 166.8 64.5 163.875 74.625 Q 160.95 84.75 159.225 93.375 Q 157.5 102 157.5 107.25 Q 157.5 110.7 158.475 113.775 Q 159.45 116.85 163.65 116.85 Q 166.2 116.85 167.25 115.05 Q 168.3 113.25 169.5 112.8 Q 169.8 112.95 169.8 113.55 Q 169.8 115.95 167.325 117.75 Q 164.85 119.55 161.775 120.525 Q 158.7 121.5 156.6 121.5 Q 153.3 121.5 151.8 119.7 Q 150.3 117.9 149.925 115.2 Q 149.55 112.5 149.55 109.95 Q 149.55 104.1 151.125 96.075 Q 152.7 88.05 155.325 79.05 Q 157.95 70.05 161.1 61.05 Q 164.25 52.05 167.55 44.1 Q 170.85 36.15 173.7 30.45 Q 162.9 38.55 152.85 49.275 Q 142.8 60 134.7 72.225 Q 126.6 84.45 121.65 97.35 Q 121.05 98.7 120.6 100.65 Q 120.15 102.6 120.15 104.1 Q 120.15 105 118.875 105.75 Q 117.6 106.5 116.1 107.1 Q 114.6 107.7 114 108.45 Q 112.65 110.1 111.675 111.225 Q 110.7 112.35 108.45 113.1 Q 108.6 110.1 108.675 107.25 Q 108.75 104.4 108.75 101.55 Q 108.75 91.35 107.7 79.8 Q 106.65 68.25 104.175 56.925 Q 101.7 45.6 97.2 36.45 Q 94.05 45.9 90.825 55.35 Q 87.6 64.8 83.85 74.1 Q 80.7 81.75 76.275 90.075 Q 71.85 98.4 66.15 106.05 Q 60.45 113.7 53.55 119.775 Q 46.65 125.85 38.55 129 Q 36.3 129.9 33.825 130.275 Q 31.35 130.65 28.95 130.65 Q 21.3 130.65 14.25 126.9 Q 7.2 123.15 3.9 116.1 Q 1.8 111.6 0.9 106.575 Q 0 101.55 0 96.6 Q 0 95.85 0.075 93.825 Q 0.15 91.8 0.45 89.325 Q 0.75 86.85 1.2 85.125 Q 1.65 83.4 2.55 83.4 L 2.7 83.475 Q 2.85 83.55 2.85 83.7 Q 3.6 85.35 3.6 88.575 Q 3.6 91.8 3.75 93.9 Q 4.35 99 6 104.925 Q 7.65 110.85 10.725 115.95 Q 13.8 121.05 18.3 124.35 Q 22.8 127.65 29.1 127.65 Q 36 127.65 42.375 123.3 Q 48.75 118.95 54.3 111.9 Q 59.85 104.85 64.5 96.75 Q 69.15 88.65 72.675 81.075 Q 76.2 73.5 78.45 68.1 Q 81.75 60 84.975 51.675 Q 88.2 43.35 90.6 34.95 Q 91.05 33.3 91.575 31.5 Q 92.1 29.7 92.25 28.05 Q 90.6 25.95 88.725 24 Q 86.85 22.05 84.75 20.4 Q 79.35 16.2 72.45 12.975 Q 65.55 9.75 58.275 7.875 Q 51 6 44.1 6 Q 39.3 6 34.875 7.425 Q 30.45 8.85 27.75 12.15 Q 25.05 15.45 25.05 21.15 Q 25.05 22.35 25.125 23.7 Q 25.2 25.05 25.2 26.25 Q 25.2 26.85 25.05 28.125 Q 24.9 29.4 24.15 29.4 Q 23.25 29.4 22.8 28.05 Q 22.35 26.7 22.125 25.2 Q 21.9 23.7 21.9 23.1 Q 21.9 21 22.275 19.125 Q 22.65 17.25 23.1 15.3 Q 25.05 7.05 31.425 3.525 Q 37.8 0 45.6 0 Q 51.75 0 58.725 1.725 Q 65.7 3.45 72.6 6.525 Q 79.5 9.6 85.5 13.65 Q 91.5 17.7 95.55 22.35 Q 96 21.9 97.05 20.775 Q 98.1 19.65 99.15 18.6 Q 100.2 17.55 100.65 17.55 Q 101.4 17.55 101.4 18.45 Q 101.4 20.7 100.875 23.1 Q 100.35 25.5 99.75 27.75 Q 105.15 35.55 108.825 45.975 Q 112.5 56.4 114.375 67.575 Q 116.25 78.75 116.25 88.8 L 116.25 91.2 Q 116.25 92.4 116.1 93.6 Q 122.25 82.65 129.825 71.55 Q 137.4 60.45 146.25 50.325 Q 155.1 40.2 164.85 32.4 Q 167.7 30.15 170.625 28.125 Q 173.55 26.1 176.55 24.15 Z M 502.35 21.9 L 502.65 22.2 Q 503.1 21.75 504.375 20.025 Q 505.65 18.3 506.925 16.8 Q 508.2 15.3 508.5 15.3 Q 508.95 15.3 508.95 15.75 Q 508.95 15.9 508.8 15.9 Q 506.1 19.65 504.75 23.175 Q 503.4 26.7 502.2 31.2 Q 502.2 31.5 501.75 31.5 Q 501.15 31.5 500.175 30.9 Q 499.2 30.3 499.2 29.7 Q 499.2 27.6 499.875 25.65 Q 500.55 23.7 500.55 21.75 Q 500.55 19.35 498.975 18.15 Q 497.4 16.95 495.225 16.575 Q 493.05 16.2 491.1 16.2 Q 487.2 16.2 482.475 17.55 Q 477.75 18.9 473.4 21.45 Q 469.05 24 466.2 27.675 Q 463.35 31.35 463.35 35.85 Q 463.35 39.6 465.75 42.45 Q 468.15 45.3 471.45 47.325 Q 474.75 49.35 477.6 51 Q 482.1 53.4 487.125 56.85 Q 492.15 60.3 495.675 64.8 Q 499.2 69.3 499.2 75.15 Q 499.2 84.6 495 92.475 Q 490.8 100.35 483.75 106.575 Q 476.7 112.8 468 117.075 Q 459.3 121.35 450.15 123.6 Q 441 125.85 432.75 125.85 Q 426.45 125.85 420.075 124.125 Q 413.7 122.4 409.425 118.125 Q 405.15 113.85 405.15 106.2 Q 405.15 101.4 406.8 96.6 Q 408.45 91.8 410.85 87.6 Q 412.8 84 416.475 79.8 Q 420.15 75.6 424.65 71.85 Q 429.15 68.1 433.95 65.625 Q 438.75 63.15 442.95 63.15 Q 443.85 63.15 444.225 64.2 Q 444.6 65.25 445.65 66 Q 446.1 66.15 446.475 66.225 Q 446.85 66.3 447.3 66.6 Q 448.05 66.9 448.05 67.5 Q 448.05 68.25 447.15 68.25 Q 446.1 68.25 445.275 67.875 Q 444.45 67.5 443.4 67.5 Q 440.55 67.5 436.875 68.775 Q 433.2 70.05 430.5 71.4 Q 424.95 74.1 420.525 78.9 Q 416.1 83.7 413.475 89.7 Q 410.85 95.7 410.85 102 Q 410.85 109.2 414.825 113.325 Q 418.8 117.45 424.875 119.1 Q 430.95 120.75 436.95 120.75 Q 443.4 120.75 450.975 119.1 Q 458.55 117.45 465.975 114.15 Q 473.4 110.85 479.4 106.05 Q 485.4 101.25 489.075 94.95 Q 492.75 88.65 492.75 81 Q 492.75 76.65 490.2 73.35 Q 487.65 70.05 483.525 67.35 Q 479.4 64.65 474.9 61.95 Q 470.4 59.25 466.275 56.25 Q 462.15 53.25 459.6 49.5 Q 457.05 45.75 457.05 40.65 Q 457.05 34.8 460.5 29.325 Q 463.95 23.85 469.425 19.5 Q 474.9 15.15 481.125 12.6 Q 487.35 10.05 492.9 10.05 Q 496.8 10.05 499.8 11.775 Q 502.8 13.5 502.8 18 Q 502.8 19.8 502.35 21.9 Z M 277.65 58.35 L 277.65 58.8 Q 277.5 59.25 277.2 59.175 Q 276.9 59.1 276.6 59.1 Q 273.75 59.1 271.275 62.25 Q 268.8 65.4 266.85 69.975 Q 264.9 74.55 263.55 78.75 Q 262.2 82.95 261.6 85.05 Q 258.3 96.9 253.425 109.125 Q 248.55 121.35 240.75 131.25 Q 238.95 133.5 237 135.675 Q 235.05 137.85 232.95 139.95 Q 227.1 145.95 219.75 150.15 Q 212.4 154.35 203.7 154.35 Q 202.8 154.35 200.25 153.6 Q 197.7 152.85 195.525 151.65 Q 193.35 150.45 193.35 149.25 Q 193.35 148.95 193.95 148.95 Q 194.85 149.25 195.3 149.25 Q 195.45 149.25 196.05 148.95 Q 195.45 148.05 195.45 147.15 Q 195.45 146.4 195.9 146.25 Q 195.6 145.35 195.15 144.525 Q 194.7 143.7 194.25 142.8 Q 193.95 142.2 192.9 140.925 Q 191.85 139.65 191.85 139.05 Q 191.85 138.6 192.15 137.7 Q 195.3 142.05 197.55 144.6 Q 199.8 147.15 202.95 148.275 Q 206.1 149.4 211.8 149.4 Q 218.4 149.4 224.175 144.6 Q 229.95 139.8 234.675 132.225 Q 239.4 124.65 243.075 115.95 Q 246.75 107.25 249.375 99.225 Q 252 91.2 253.35 85.95 Q 251.55 88.35 248.1 92.85 Q 244.65 97.35 240.45 101.925 Q 236.25 106.5 232.125 109.725 Q 228 112.95 224.85 112.95 Q 222.45 112.95 221.775 111.075 Q 221.1 109.2 221.1 107.25 Q 221.1 100.35 223.8 92.175 Q 226.5 84 230.85 76.5 Q 235.2 69 240.3 64.35 Q 246 59.4 253.05 59.4 Q 256.05 59.4 258.975 60.075 Q 261.9 60.75 264.75 61.95 Q 267.3 60.15 270.3 58.8 Q 273.3 57.45 276.45 57.45 Q 277.2 57.45 277.65 58.35 Z M 231.45 106.5 Q 233.1 106.5 235.575 104.325 Q 238.05 102.15 240.825 99.075 Q 243.6 96 245.775 93.15 Q 247.95 90.3 248.85 88.95 Q 250.65 86.25 252.975 82.2 Q 255.3 78.15 257.025 73.8 Q 258.75 69.45 258.75 66.45 Q 258.75 61.8 254.1 61.8 Q 251.4 61.8 248.4 64.2 Q 245.4 66.6 243.6 68.55 Q 241.65 70.95 239.175 75.45 Q 236.7 79.95 234.6 85.2 Q 232.5 90.45 231.075 95.25 Q 229.65 100.05 229.65 103.2 Q 229.65 104.1 230.025 105.3 Q 230.4 106.5 231.45 106.5 Z M 324.9 58.35 L 324.9 58.8 Q 324.75 59.25 324.45 59.175 Q 324.15 59.1 323.85 59.1 Q 321 59.1 318.525 62.25 Q 316.05 65.4 314.1 69.975 Q 312.15 74.55 310.8 78.75 Q 309.45 82.95 308.85 85.05 Q 305.55 96.9 300.675 109.125 Q 295.8 121.35 288 131.25 Q 286.2 133.5 284.25 135.675 Q 282.3 137.85 280.2 139.95 Q 274.35 145.95 267 150.15 Q 259.65 154.35 250.95 154.35 Q 250.05 154.35 247.5 153.6 Q 244.95 152.85 242.775 151.65 Q 240.6 150.45 240.6 149.25 Q 240.6 148.95 241.2 148.95 Q 242.1 149.25 242.55 149.25 Q 242.7 149.25 243.3 148.95 Q 242.7 148.05 242.7 147.15 Q 242.7 146.4 243.15 146.25 Q 242.85 145.35 242.4 144.525 Q 241.95 143.7 241.5 142.8 Q 241.2 142.2 240.15 140.925 Q 239.1 139.65 239.1 139.05 Q 239.1 138.6 239.4 137.7 Q 242.55 142.05 244.8 144.6 Q 247.05 147.15 250.2 148.275 Q 253.35 149.4 259.05 149.4 Q 265.65 149.4 271.425 144.6 Q 277.2 139.8 281.925 132.225 Q 286.65 124.65 290.325 115.95 Q 294 107.25 296.625 99.225 Q 299.25 91.2 300.6 85.95 Q 298.8 88.35 295.35 92.85 Q 291.9 97.35 287.7 101.925 Q 283.5 106.5 279.375 109.725 Q 275.25 112.95 272.1 112.95 Q 269.7 112.95 269.025 111.075 Q 268.35 109.2 268.35 107.25 Q 268.35 100.35 271.05 92.175 Q 273.75 84 278.1 76.5 Q 282.45 69 287.55 64.35 Q 293.25 59.4 300.3 59.4 Q 303.3 59.4 306.225 60.075 Q 309.15 60.75 312 61.95 Q 314.55 60.15 317.55 58.8 Q 320.55 57.45 323.7 57.45 Q 324.45 57.45 324.9 58.35 Z M 278.7 106.5 Q 280.35 106.5 282.825 104.325 Q 285.3 102.15 288.075 99.075 Q 290.85 96 293.025 93.15 Q 295.2 90.3 296.1 88.95 Q 297.9 86.25 300.225 82.2 Q 302.55 78.15 304.275 73.8 Q 306 69.45 306 66.45 Q 306 61.8 301.35 61.8 Q 298.65 61.8 295.65 64.2 Q 292.65 66.6 290.85 68.55 Q 288.9 70.95 286.425 75.45 Q 283.95 79.95 281.85 85.2 Q 279.75 90.45 278.325 95.25 Q 276.9 100.05 276.9 103.2 Q 276.9 104.1 277.275 105.3 Q 277.65 106.5 278.7 106.5 Z M 652.65 17.85 L 652.65 18.3 Q 652.5 18.75 652.2 18.675 Q 651.9 18.6 651.6 18.6 Q 649.5 18.6 646.725 21.75 Q 643.95 24.9 640.875 30 Q 637.8 35.1 634.8 41.175 Q 631.8 47.25 629.175 53.025 Q 626.55 58.8 624.675 63.375 Q 622.8 67.95 621.9 70.05 Q 620.85 72.9 619.05 77.4 Q 617.25 81.9 615.6 87 Q 613.95 92.1 612.75 96.6 Q 611.55 101.1 611.55 104.1 Q 611.55 105 611.85 106.2 Q 612.15 107.4 613.35 107.4 Q 614.1 107.4 614.625 107.1 Q 615.15 106.8 615.75 106.5 Q 619.2 104.55 622.425 101.175 Q 625.65 97.8 628.35 93.825 Q 631.05 89.85 632.7 86.55 Q 633 86.7 633 87.15 Q 633 88.2 631.275 90.825 Q 629.55 93.45 627.825 95.775 Q 626.1 98.1 625.95 98.7 Q 625.8 99.75 625.5 100.425 Q 625.2 101.1 624.6 102.15 Q 622.65 104.1 619.65 106.65 Q 616.65 109.2 613.425 111.075 Q 610.2 112.95 607.2 112.95 Q 602.55 112.95 602.55 108 Q 602.55 105 603.825 101.1 Q 605.1 97.2 606.825 93.3 Q 608.55 89.4 609.9 86.7 Q 608.25 89.1 604.875 93.45 Q 601.5 97.8 597.375 102.3 Q 593.25 106.8 589.2 109.875 Q 585.15 112.95 582 112.95 Q 579.6 112.95 578.925 111.075 Q 578.25 109.2 578.25 107.25 Q 578.25 100.2 580.95 92.1 Q 583.65 84 588 76.575 Q 592.35 69.15 597.45 64.35 Q 600.45 61.65 603.3 60.375 Q 606.15 59.1 610.35 59.1 Q 612.75 59.1 615.15 59.4 Q 617.55 59.7 619.95 60.15 Q 627.45 43.5 633.9 26.4 Q 635.25 22.95 638.4 20.7 Q 640.95 19.05 644.7 18 Q 648.45 16.95 651.3 16.95 Q 651.6 16.95 652.05 17.25 Q 652.5 17.55 652.65 17.85 Z M 588.6 106.5 Q 590.25 106.5 592.725 104.4 Q 595.2 102.3 597.975 99.225 Q 600.75 96.15 602.925 93.375 Q 605.1 90.6 606 89.25 Q 607.8 86.55 610.05 82.35 Q 612.3 78.15 614.025 73.8 Q 615.75 69.45 615.75 66.45 Q 615.75 61.8 611.25 61.8 Q 608.4 61.8 605.475 64.2 Q 602.55 66.6 600.75 68.55 Q 598.8 70.95 596.325 75.45 Q 593.85 79.95 591.75 85.2 Q 589.65 90.45 588.225 95.25 Q 586.8 100.05 586.8 103.2 Q 586.8 104.1 587.1 105.3 Q 587.4 106.5 588.6 106.5 Z M 172.65 108.3 L 172.65 107.7 Q 172.65 105.3 173.55 102.825 Q 174.45 100.35 175.2 98.1 Q 176.4 94.65 178.125 89.475 Q 179.85 84.3 181.275 79.05 Q 182.7 73.8 182.7 70.5 Q 182.7 69.15 182.325 67.95 Q 181.95 66.75 180.3 66.6 L 180.075 66.6 Q 179.85 66.6 179.85 66.45 Q 179.85 66 181.425 65.475 Q 183 64.95 185.25 64.35 Q 187.5 63.75 189.45 63.375 Q 191.4 63 192 63 Q 192.3 63 193.125 63.15 Q 193.95 63.3 193.95 64.05 Q 193.95 64.35 193.8 64.5 Q 192.3 68.1 190.35 73.05 Q 188.4 78 186.525 83.475 Q 184.65 88.95 183.45 94.125 Q 182.25 99.3 182.25 103.35 Q 182.25 104.1 182.55 104.85 Q 182.85 105.6 183.75 105.6 Q 185.4 105.6 187.875 103.65 Q 190.35 101.7 191.4 100.65 Q 196.95 94.8 201.45 86.4 Q 205.95 78 208.35 70.35 Q 209.1 68.1 209.85 67.125 Q 210.6 66.15 212.55 64.65 Q 214.95 63 217.875 61.65 Q 220.8 60.3 223.8 60.3 Q 224.1 60.3 224.55 60.675 Q 225 61.05 225 61.5 Q 225 61.8 224.625 61.875 Q 224.25 61.95 223.95 61.95 Q 222 61.95 219.9 64.35 Q 217.8 66.75 215.85 70.5 Q 213.9 74.25 212.325 78.3 Q 210.75 82.35 209.625 85.725 Q 208.5 89.1 208.05 90.75 Q 207.45 93.6 206.775 96.45 Q 206.1 99.3 206.1 102.3 Q 206.1 103.5 206.475 105.375 Q 206.85 107.25 208.65 107.25 Q 209.7 107.25 210.75 106.5 Q 214.05 104.55 217.05 101.175 Q 220.05 97.8 222.6 93.825 Q 225.15 89.85 226.65 86.55 Q 226.95 86.7 226.95 87.15 Q 226.95 88.35 225.375 90.975 Q 223.8 93.6 222.225 95.925 Q 220.65 98.25 220.5 98.7 Q 220.35 99.75 220.125 100.425 Q 219.9 101.1 219.45 102.15 Q 217.65 104.1 214.725 106.65 Q 211.8 109.2 208.65 111.15 Q 205.5 113.1 202.65 113.1 Q 199.95 113.1 199.05 111.525 Q 198.15 109.95 198.15 107.55 Q 198.15 103.65 199.425 98.775 Q 200.7 93.9 201.75 90.15 Q 197.85 96.15 192.75 102 Q 187.65 107.85 181.05 111.3 Q 180 111.9 178.65 112.425 Q 177.3 112.95 176.1 112.95 Q 174 112.95 173.325 111.45 Q 172.65 109.95 172.65 108.3 Z M 530.1 108.3 L 530.1 107.7 Q 530.1 105.3 531 102.825 Q 531.9 100.35 532.65 98.1 Q 533.85 94.65 535.575 89.475 Q 537.3 84.3 538.725 79.05 Q 540.15 73.8 540.15 70.5 Q 540.15 69.15 539.775 67.95 Q 539.4 66.75 537.75 66.6 L 537.525 66.6 Q 537.3 66.6 537.3 66.45 Q 537.3 66 538.875 65.475 Q 540.45 64.95 542.7 64.35 Q 544.95 63.75 546.9 63.375 Q 548.85 63 549.45 63 Q 549.75 63 550.575 63.15 Q 551.4 63.3 551.4 64.05 Q 551.4 64.35 551.25 64.5 Q 549.75 68.1 547.8 73.05 Q 545.85 78 543.975 83.475 Q 542.1 88.95 540.9 94.125 Q 539.7 99.3 539.7 103.35 Q 539.7 104.1 540 104.85 Q 540.3 105.6 541.2 105.6 Q 542.85 105.6 545.325 103.65 Q 547.8 101.7 548.85 100.65 Q 554.4 94.8 558.9 86.4 Q 563.4 78 565.8 70.35 Q 566.55 68.1 567.3 67.125 Q 568.05 66.15 570 64.65 Q 572.4 63 575.325 61.65 Q 578.25 60.3 581.25 60.3 Q 581.55 60.3 582 60.675 Q 582.45 61.05 582.45 61.5 Q 582.45 61.8 582.075 61.875 Q 581.7 61.95 581.4 61.95 Q 579.45 61.95 577.35 64.35 Q 575.25 66.75 573.3 70.5 Q 571.35 74.25 569.775 78.3 Q 568.2 82.35 567.075 85.725 Q 565.95 89.1 565.5 90.75 Q 564.9 93.6 564.225 96.45 Q 563.55 99.3 563.55 102.3 Q 563.55 103.5 563.925 105.375 Q 564.3 107.25 566.1 107.25 Q 567.15 107.25 568.2 106.5 Q 571.5 104.55 574.5 101.175 Q 577.5 97.8 580.05 93.825 Q 582.6 89.85 584.1 86.55 Q 584.4 86.7 584.4 87.15 Q 584.4 88.35 582.825 90.975 Q 581.25 93.6 579.675 95.925 Q 578.1 98.25 577.95 98.7 Q 577.8 99.75 577.575 100.425 Q 577.35 101.1 576.9 102.15 Q 575.1 104.1 572.175 106.65 Q 569.25 109.2 566.1 111.15 Q 562.95 113.1 560.1 113.1 Q 557.4 113.1 556.5 111.525 Q 555.6 109.95 555.6 107.55 Q 555.6 103.65 556.875 98.775 Q 558.15 93.9 559.2 90.15 Q 555.3 96.15 550.2 102 Q 545.1 107.85 538.5 111.3 Q 537.45 111.9 536.1 112.425 Q 534.75 112.95 533.55 112.95 Q 531.45 112.95 530.775 111.45 Q 530.1 109.95 530.1 108.3 Z M 318.9 112.5 Q 314.4 112.5 314.4 107.55 Q 314.4 104.1 316.2 97.95 Q 318 91.8 320.475 84.825 Q 322.95 77.85 325.425 71.625 Q 327.9 65.4 329.25 61.8 Q 331.2 56.55 334.05 49.65 Q 336.9 42.75 340.65 35.625 Q 344.4 28.5 349.125 22.5 Q 353.85 16.5 359.625 12.75 Q 365.4 9 372.3 9 Q 379.8 9 382.275 11.7 Q 384.75 14.4 384.75 17.25 Q 384.75 18.45 383.925 18.75 Q 383.1 19.05 383.1 18 Q 383.1 14.85 380.625 12.825 Q 378.15 10.8 374.55 10.8 Q 368.4 10.8 362.85 15.45 Q 357.3 20.1 352.5 27.45 Q 347.7 34.8 343.8 42.975 Q 339.9 51.15 336.975 58.425 Q 334.05 65.7 332.4 70.05 Q 331.35 72.9 329.55 77.475 Q 327.75 82.05 326.025 87.075 Q 324.3 92.1 323.1 96.675 Q 321.9 101.25 321.9 104.1 Q 321.9 105 322.2 106.2 Q 322.5 107.4 323.7 107.4 Q 324.45 107.4 324.975 107.1 Q 325.5 106.8 326.1 106.5 Q 329.55 104.55 332.775 101.175 Q 336 97.8 338.7 93.825 Q 341.4 89.85 343.2 86.55 Q 343.35 86.7 343.35 87.15 Q 343.35 88.35 341.625 90.9 Q 339.9 93.45 338.175 95.775 Q 336.45 98.1 336.3 98.7 Q 336.15 99.75 335.85 100.425 Q 335.55 101.1 335.1 102.15 Q 333.3 103.95 330.525 106.35 Q 327.75 108.75 324.75 110.625 Q 321.75 112.5 318.9 112.5 Z M 515.85 58.05 L 520.05 58.05 Q 521.55 54.45 523.125 50.85 Q 524.7 47.25 526.05 43.65 Q 526.8 41.7 527.775 40.425 Q 528.75 39.15 530.55 37.95 Q 533.1 36.3 536.85 35.25 Q 540.6 34.2 543.45 34.2 Q 543.75 34.2 544.125 34.5 Q 544.5 34.8 544.65 34.95 L 544.65 35.55 Q 544.65 36 544.275 35.85 Q 543.9 35.7 543.6 35.7 Q 541.8 35.7 539.4 38.625 Q 537 41.55 534.45 45.6 Q 531.9 49.65 530.025 53.325 Q 528.15 57 527.4 58.35 L 533.4 58.35 Q 535.8 58.35 538.2 58.275 Q 540.6 58.2 543 57.9 L 543.15 58.2 Q 543 58.2 543 58.35 Q 543 58.5 542.85 58.5 Q 542.4 58.95 540.6 59.925 Q 538.8 60.9 537 61.65 Q 535.2 62.4 534.45 62.55 Q 532.05 62.85 529.725 63 Q 527.4 63.15 525 63.15 Q 523.5 66.45 521.1 71.85 Q 518.7 77.25 516.3 83.325 Q 513.9 89.4 512.325 94.875 Q 510.75 100.35 510.75 103.95 Q 510.75 104.85 511.05 106.05 Q 511.35 107.25 512.55 107.25 Q 513.6 107.25 514.65 106.5 Q 517.95 104.55 521.175 101.175 Q 524.4 97.8 527.175 93.825 Q 529.95 89.85 531.6 86.55 Q 531.9 86.7 531.9 87.15 Q 531.9 88.05 530.85 89.775 Q 529.8 91.5 528.45 93.45 Q 527.1 95.4 525.975 96.9 Q 524.85 98.4 524.85 98.7 Q 524.7 99.9 524.325 100.425 Q 523.95 100.95 523.5 102.15 Q 521.55 103.95 518.55 106.575 Q 515.55 109.2 512.25 111.15 Q 508.95 113.1 506.1 113.1 Q 503.7 113.1 502.8 111.9 Q 501.9 110.7 501.9 108.45 Q 501.9 104.55 503.7 98.625 Q 505.5 92.7 508.2 86.025 Q 510.9 79.35 513.525 73.275 Q 516.15 67.2 517.8 63.3 Q 515.85 63.45 513.9 63.45 Q 511.95 63.45 509.85 63.6 Q 509.55 63.3 509.55 63 Q 509.55 62.1 510.75 60.9 Q 511.95 59.7 513.525 58.875 Q 515.1 58.05 515.85 58.05 Z M 679.2 108.9 L 679.2 108.6 Q 679.2 107.85 681.075 106.275 Q 682.95 104.7 685.05 103.125 Q 687.15 101.55 687.75 100.8 L 688.8 100.5 L 689.1 101.1 Q 688.05 102 688.05 103.05 Q 688.05 105.3 689.775 106.8 Q 691.5 108.3 693.825 109.05 Q 696.15 109.8 697.95 109.8 Q 700.05 109.8 703.275 108.6 Q 706.5 107.4 709.05 105.3 Q 711.6 103.2 711.6 100.65 Q 711.6 96.75 709.2 93.9 Q 706.8 91.05 703.65 88.5 Q 700.5 85.95 698.1 83.1 Q 695.7 80.25 695.7 76.5 Q 695.7 72.15 698.325 68.625 Q 700.95 65.1 705.075 62.625 Q 709.2 60.15 713.7 58.875 Q 718.2 57.6 721.95 57.6 Q 722.55 57.6 724.65 57.825 Q 726.75 58.05 728.625 58.575 Q 730.5 59.1 730.5 60 Q 730.5 60.3 730.35 60.3 L 730.05 60.3 L 728.85 60 Q 729.3 61.05 729.3 62.55 Q 729.3 63.9 728.7 66 Q 728.1 68.1 727.35 69.3 Q 727.2 69.6 725.85 71.25 Q 724.5 72.9 723.15 74.4 Q 721.8 75.9 721.5 75.9 L 721.35 75.6 Q 721.65 74.85 723.3 72.975 Q 724.95 71.1 724.95 68.1 Q 724.95 64.95 722.1 62.925 Q 719.25 60.9 716.25 60.9 Q 713.4 60.9 710.325 62.7 Q 707.25 64.5 705.225 67.35 Q 703.2 70.2 703.2 73.2 Q 703.2 75.9 705.825 78.825 Q 708.45 81.75 711.825 84.675 Q 715.2 87.6 717.825 90.45 Q 720.45 93.3 720.45 95.85 L 720.45 96.3 Q 720.45 100.05 717.15 103.275 Q 713.85 106.5 708.9 108.9 Q 703.95 111.3 698.925 112.575 Q 693.9 113.85 690.6 113.85 Q 687.75 113.85 684.3 112.8 Q 680.85 111.75 679.2 108.9 Z M 345.45 113.25 Q 336.75 113.25 336.75 104.4 Q 336.75 97.8 339.45 90.225 Q 342.15 82.65 346.5 75.675 Q 350.85 68.7 355.65 64.35 Q 361.35 59.4 369 59.4 Q 370.8 59.4 373.425 59.85 Q 376.05 60.3 378 61.575 Q 379.95 62.85 379.95 65.25 Q 379.95 68.7 377.4 73.125 Q 374.85 77.55 372.75 80.25 Q 373.5 80.4 374.625 80.7 Q 375.75 81 375.75 81.9 Q 375.75 82.35 375 82.35 Q 373.65 82.35 372.3 82.05 Q 370.95 81.75 369.6 81.75 Q 364.5 81.75 359.175 83.25 Q 353.85 84.75 349.05 86.4 Q 347.55 90 346.425 94.35 Q 345.3 98.7 345.3 102.6 Q 345.3 105.45 346.425 107.7 Q 347.55 109.95 350.85 109.95 Q 354.9 109.95 359.175 107.625 Q 363.45 105.3 367.425 101.625 Q 371.4 97.95 374.55 93.9 Q 377.7 89.85 379.5 86.55 Q 379.65 86.7 379.65 87.15 Q 379.65 88.5 378 90.825 Q 376.35 93.15 374.625 95.4 Q 372.9 97.65 372.6 98.7 Q 372.45 99.75 372.075 100.5 L 371.25 102.15 Q 368.7 104.7 363.975 107.325 Q 359.25 109.95 354.225 111.6 Q 349.2 113.25 345.45 113.25 Z M 351.15 81.6 Q 355.05 80.85 358.875 80.4 Q 362.7 79.95 366.6 79.95 L 369 79.95 Q 370.2 79.95 371.4 80.1 Q 372.6 77.55 373.425 74.55 Q 374.25 71.55 374.25 68.7 Q 374.25 66.45 373.35 64.125 Q 372.45 61.8 369.45 61.8 Q 366.6 61.8 363.675 64.2 Q 360.75 66.6 358.95 68.55 Q 356.55 71.4 354.675 74.775 Q 352.8 78.15 351.15 81.6 Z M 658.2 113.25 Q 649.5 113.25 649.5 104.4 Q 649.5 97.8 652.2 90.225 Q 654.9 82.65 659.25 75.675 Q 663.6 68.7 668.4 64.35 Q 674.1 59.4 681.75 59.4 Q 683.55 59.4 686.175 59.85 Q 688.8 60.3 690.75 61.575 Q 692.7 62.85 692.7 65.25 Q 692.7 68.7 690.15 73.125 Q 687.6 77.55 685.5 80.25 Q 686.25 80.4 687.375 80.7 Q 688.5 81 688.5 81.9 Q 688.5 82.35 687.75 82.35 Q 686.4 82.35 685.05 82.05 Q 683.7 81.75 682.35 81.75 Q 677.25 81.75 671.925 83.25 Q 666.6 84.75 661.8 86.4 Q 660.3 90 659.175 94.35 Q 658.05 98.7 658.05 102.6 Q 658.05 105.45 659.175 107.7 Q 660.3 109.95 663.6 109.95 Q 667.65 109.95 671.925 107.625 Q 676.2 105.3 680.175 101.625 Q 684.15 97.95 687.3 93.9 Q 690.45 89.85 692.25 86.55 Q 692.4 86.7 692.4 87.15 Q 692.4 88.5 690.75 90.825 Q 689.1 93.15 687.375 95.4 Q 685.65 97.65 685.35 98.7 Q 685.2 99.75 684.825 100.5 L 684 102.15 Q 681.45 104.7 676.725 107.325 Q 672 109.95 666.975 111.6 Q 661.95 113.25 658.2 113.25 Z M 663.9 81.6 Q 667.8 80.85 671.625 80.4 Q 675.45 79.95 679.35 79.95 L 681.75 79.95 Q 682.95 79.95 684.15 80.1 Q 685.35 77.55 686.175 74.55 Q 687 71.55 687 68.7 Q 687 66.45 686.1 64.125 Q 685.2 61.8 682.2 61.8 Q 679.35 61.8 676.425 64.2 Q 673.5 66.6 671.7 68.55 Q 669.3 71.4 667.425 74.775 Q 665.55 78.15 663.9 81.6 Z M 630.45 113.1 Q 628.05 113.1 627.15 111.9 Q 626.25 110.7 626.25 108.45 Q 626.25 103.5 628.275 96.45 Q 630.3 89.4 632.85 82.125 Q 635.4 74.85 636.9 69.15 Q 637.5 67.05 639.825 66.225 Q 642.15 65.4 643.8 64.2 Q 646.2 62.55 648.9 61.425 Q 651.6 60.3 654.6 60.3 Q 655.35 60.3 655.575 60.6 Q 655.8 60.9 655.8 61.05 Q 655.8 61.95 654.75 61.95 Q 652.65 61.95 650.4 64.425 Q 648.15 66.9 645.9 70.8 Q 643.65 74.7 641.85 78.9 Q 640.05 83.1 638.7 86.625 Q 637.35 90.15 636.9 91.8 Q 636.15 94.2 635.4 97.425 Q 634.65 100.65 634.65 103.35 Q 634.65 104.4 634.95 105.825 Q 635.25 107.25 636.75 107.25 Q 637.8 107.25 639 106.5 Q 642.3 104.55 645.525 101.175 Q 648.75 97.8 651.525 93.825 Q 654.3 89.85 655.95 86.55 Q 656.25 86.7 656.25 87.15 Q 656.25 88.05 655.2 89.775 Q 654.15 91.5 652.8 93.45 Q 651.45 95.4 650.325 96.9 Q 649.2 98.4 649.2 98.7 Q 649.05 99.9 648.75 100.425 Q 648.45 100.95 647.85 102.15 Q 646.05 103.95 643.05 106.575 Q 640.05 109.2 636.75 111.15 Q 633.45 113.1 630.45 113.1 Z M 655.8 48.15 Q 654.6 48.15 652.125 47.175 Q 649.65 46.2 649.65 44.7 Q 649.65 44.55 649.725 44.475 Q 649.8 44.4 649.8 44.25 Q 650.55 42.75 653.175 42.45 Q 655.8 42.15 657.15 41.55 Q 660.15 40.35 663 39.6 Q 665.85 38.85 668.4 36.9 Q 669 37.2 669 37.5 Q 669 38.1 667.725 39.15 Q 666.45 40.2 666 40.95 Q 665.4 41.85 663.375 43.575 Q 661.35 45.3 659.1 46.725 Q 656.85 48.15 655.8 48.15 Z"/></g></svg>