<svg width="487" height="102.901" viewBox="0 0 487 102.901" xmlns="http://www.w3.org/2000/svg"><g id="svgGroup" stroke-linecap="round" fill-rule="nonzero" font-size="9pt" stroke="#ff5522" stroke-width="0.75mm" fill="#ff5522" style="stroke:#ff5522;stroke-width:0.75mm;fill:#ff5522"><path d="M 117.7 16.1 L 118.1 15.8 Q 118.9 14.3 120 12.6 Q 120.9 12 121.8 12 Q 122 12 122.9 12.35 Q 123.8 12.7 123.9 12.8 Q 126.7 11.6 129.7 10.7 Q 132.7 9.8 135.8 9.8 Q 136.6 9.8 138.35 10.05 Q 140.1 10.3 141.65 10.8 Q 143.2 11.3 143.2 12.3 Q 143.2 12.5 143.1 12.85 Q 143 13.2 142.9 13.4 L 142 15.1 Q 141.5 16.2 141.2 17.45 Q 140.9 18.7 140.5 19.8 Q 140.4 20 140.1 20.95 Q 139.8 21.9 139.5 21.9 L 139.3 21.9 Q 138.7 21.5 138.55 20.8 Q 138.4 20.1 138.4 19.1 Q 138.4 17.7 138.3 16.15 Q 138.2 14.6 137.15 13.5 Q 136.1 12.4 133.1 12.4 Q 130.4 12.4 127.85 13.3 Q 125.3 14.2 123 15.5 Q 120.8 18.6 118.35 24.1 Q 115.9 29.6 113.55 36.3 Q 111.2 43 109.25 49.75 Q 107.3 56.5 106.15 62.25 Q 105 68 105 71.5 Q 105 73.8 105.65 75.85 Q 106.3 77.9 109.1 77.9 Q 110.8 77.9 111.5 76.7 Q 112.2 75.5 113 75.2 Q 113.2 75.3 113.2 75.7 Q 113.2 77.3 111.55 78.5 Q 109.9 79.7 107.85 80.35 Q 105.8 81 104.4 81 Q 102.2 81 101.2 79.8 Q 100.2 78.6 99.95 76.8 Q 99.7 75 99.7 73.3 Q 99.7 69.4 100.75 64.05 Q 101.8 58.7 103.55 52.7 Q 105.3 46.7 107.4 40.7 Q 109.5 34.7 111.7 29.4 Q 113.9 24.1 115.8 20.3 Q 108.6 25.7 101.9 32.85 Q 95.2 40 89.8 48.15 Q 84.4 56.3 81.1 64.9 Q 80.7 65.8 80.4 67.1 Q 80.1 68.4 80.1 69.4 Q 80.1 70 79.25 70.5 Q 78.4 71 77.4 71.4 Q 76.4 71.8 76 72.3 Q 75.1 73.4 74.45 74.15 Q 73.8 74.9 72.3 75.4 Q 72.4 73.4 72.45 71.5 Q 72.5 69.6 72.5 67.7 Q 72.5 60.9 71.8 53.2 Q 71.1 45.5 69.45 37.95 Q 67.8 30.4 64.8 24.3 Q 62.7 30.6 60.55 36.9 Q 58.4 43.2 55.9 49.4 Q 53.8 54.5 50.85 60.05 Q 47.9 65.6 44.1 70.7 Q 40.3 75.8 35.7 79.85 Q 31.1 83.9 25.7 86 Q 24.2 86.6 22.55 86.85 Q 20.9 87.1 19.3 87.1 Q 14.2 87.1 9.5 84.6 Q 4.8 82.1 2.6 77.4 Q 1.2 74.4 0.6 71.05 Q 0 67.7 0 64.4 Q 0 63.9 0.05 62.55 Q 0.1 61.2 0.3 59.55 Q 0.5 57.9 0.8 56.75 Q 1.1 55.6 1.7 55.6 L 1.8 55.65 Q 1.9 55.7 1.9 55.8 Q 2.4 56.9 2.4 59.05 Q 2.4 61.2 2.5 62.6 Q 2.9 66 4 69.95 Q 5.1 73.9 7.15 77.3 Q 9.2 80.7 12.2 82.9 Q 15.2 85.1 19.4 85.1 Q 24 85.1 28.25 82.2 Q 32.5 79.3 36.2 74.6 Q 39.9 69.9 43 64.5 Q 46.1 59.1 48.45 54.05 Q 50.8 49 52.3 45.4 Q 54.5 40 56.65 34.45 Q 58.8 28.9 60.4 23.3 Q 60.7 22.2 61.05 21 Q 61.4 19.8 61.5 18.7 Q 60.4 17.3 59.15 16 Q 57.9 14.7 56.5 13.6 Q 52.9 10.8 48.3 8.65 Q 43.7 6.5 38.85 5.25 Q 34 4 29.4 4 Q 26.2 4 23.25 4.95 Q 20.3 5.9 18.5 8.1 Q 16.7 10.3 16.7 14.1 Q 16.7 14.9 16.75 15.8 Q 16.8 16.7 16.8 17.5 Q 16.8 17.9 16.7 18.75 Q 16.6 19.6 16.1 19.6 Q 15.5 19.6 15.2 18.7 Q 14.9 17.8 14.75 16.8 Q 14.6 15.8 14.6 15.4 Q 14.6 14 14.85 12.75 Q 15.1 11.5 15.4 10.2 Q 16.7 4.7 20.95 2.35 Q 25.2 0 30.4 0 Q 34.5 0 39.15 1.15 Q 43.8 2.3 48.4 4.35 Q 53 6.4 57 9.1 Q 61 11.8 63.7 14.9 Q 64 14.6 64.7 13.85 Q 65.4 13.1 66.1 12.4 Q 66.8 11.7 67.1 11.7 Q 67.6 11.7 67.6 12.3 Q 67.6 13.8 67.25 15.4 Q 66.9 17 66.5 18.5 Q 70.1 23.7 72.55 30.65 Q 75 37.6 76.25 45.05 Q 77.5 52.5 77.5 59.2 L 77.5 60.8 Q 77.5 61.6 77.4 62.4 Q 81.5 55.1 86.55 47.7 Q 91.6 40.3 97.5 33.55 Q 103.4 26.8 109.9 21.6 Q 111.8 20.1 113.75 18.75 Q 115.7 17.4 117.7 16.1 Z M 334.9 14.6 Q 335.2 13.2 335.2 12 Q 335.2 9 333.2 7.85 Q 331.2 6.7 328.6 6.7 Q 324.9 6.7 320.75 8.4 Q 316.6 10.1 312.95 13 Q 309.3 15.9 307 19.55 Q 304.7 23.2 304.7 27.1 Q 304.7 30.5 306.4 33 Q 308.1 35.5 310.85 37.5 Q 313.6 39.5 316.6 41.3 Q 319.6 43.1 322.35 44.9 Q 325.1 46.7 326.8 48.9 Q 328.5 51.1 328.5 54 Q 328.5 59.1 326.05 63.3 Q 323.6 67.5 319.6 70.7 Q 315.6 73.9 310.65 76.1 Q 305.7 78.3 300.65 79.4 Q 295.6 80.5 291.3 80.5 Q 287.3 80.5 283.25 79.4 Q 279.2 78.3 276.55 75.55 Q 273.9 72.8 273.9 68 Q 273.9 63.8 275.65 59.8 Q 277.4 55.8 280.35 52.6 Q 283.3 49.4 287 47.6 Q 288.8 46.7 291.25 45.85 Q 293.7 45 295.6 45 Q 296.3 45 296.85 45.25 Q 297.4 45.5 298.1 45.5 Q 298.7 45.5 298.7 45 Q 298.7 44.6 298.2 44.4 Q 297.9 44.2 297.65 44.15 Q 297.4 44.1 297.1 44 Q 296.4 43.5 296.15 42.8 Q 295.9 42.1 295.3 42.1 Q 292.5 42.1 289.3 43.75 Q 286.1 45.4 283.1 47.9 Q 280.1 50.4 277.65 53.2 Q 275.2 56 273.9 58.4 Q 272.3 61.2 271.2 64.4 Q 270.1 67.6 270.1 70.8 Q 270.1 75.9 272.95 78.75 Q 275.8 81.6 280.05 82.75 Q 284.3 83.9 288.5 83.9 Q 294 83.9 300.1 82.4 Q 306.2 80.9 312 78.05 Q 317.8 75.2 322.5 71.05 Q 327.2 66.9 330 61.65 Q 332.8 56.4 332.8 50.1 Q 332.8 46.2 330.45 43.2 Q 328.1 40.2 324.75 37.9 Q 321.4 35.6 318.4 34 Q 316.5 32.9 314.3 31.55 Q 312.1 30.2 310.5 28.3 Q 308.9 26.4 308.9 23.9 Q 308.9 20.9 310.8 18.45 Q 312.7 16 315.6 14.3 Q 318.5 12.6 321.65 11.7 Q 324.8 10.8 327.4 10.8 Q 328.7 10.8 330.15 11.05 Q 331.6 11.3 332.65 12.1 Q 333.7 12.9 333.7 14.5 Q 333.7 15.8 333.25 17.1 Q 332.8 18.4 332.8 19.8 Q 332.8 20.2 333.45 20.6 Q 334.1 21 334.5 21 Q 334.8 21 334.8 20.8 Q 335.6 17.8 336.5 15.45 Q 337.4 13.1 339.2 10.6 Q 339.3 10.6 339.3 10.5 Q 339.3 10.2 339 10.2 Q 338.8 10.2 337.95 11.2 Q 337.1 12.2 336.25 13.35 Q 335.4 14.5 335.1 14.8 L 334.9 14.6 Z M 185.1 38.9 L 185.1 39.2 Q 185 39.5 184.8 39.45 Q 184.6 39.4 184.4 39.4 Q 182.5 39.4 180.85 41.5 Q 179.2 43.6 177.9 46.65 Q 176.6 49.7 175.7 52.5 Q 174.8 55.3 174.4 56.7 Q 172.2 64.6 168.95 72.75 Q 165.7 80.9 160.5 87.5 Q 159.3 89 158 90.45 Q 156.7 91.9 155.3 93.3 Q 151.4 97.3 146.5 100.1 Q 141.6 102.9 135.8 102.9 Q 135.2 102.9 133.5 102.4 Q 131.8 101.9 130.35 101.1 Q 128.9 100.3 128.9 99.5 Q 128.9 99.3 129.3 99.3 Q 129.9 99.5 130.2 99.5 Q 130.3 99.5 130.7 99.3 Q 130.3 98.7 130.3 98.1 Q 130.3 97.6 130.6 97.5 Q 130.4 96.9 130.1 96.35 Q 129.8 95.8 129.5 95.2 Q 129.3 94.8 128.6 93.95 Q 127.9 93.1 127.9 92.7 Q 127.9 92.4 128.1 91.8 Q 130.2 94.7 131.7 96.4 Q 133.2 98.1 135.3 98.85 Q 137.4 99.6 141.2 99.6 Q 145.6 99.6 149.45 96.4 Q 153.3 93.2 156.45 88.15 Q 159.6 83.1 162.05 77.3 Q 164.5 71.5 166.25 66.15 Q 168 60.8 168.9 57.3 Q 167.7 58.9 165.4 61.9 Q 163.1 64.9 160.3 67.95 Q 157.5 71 154.75 73.15 Q 152 75.3 149.9 75.3 Q 148.3 75.3 147.85 74.05 Q 147.4 72.8 147.4 71.5 Q 147.4 66.9 149.2 61.45 Q 151 56 153.9 51 Q 156.8 46 160.2 42.9 Q 164 39.6 168.7 39.6 Q 170.7 39.6 172.65 40.05 Q 174.6 40.5 176.5 41.3 Q 178.2 40.1 180.2 39.2 Q 182.2 38.3 184.3 38.3 Q 184.8 38.3 185.1 38.9 Z M 154.3 71 Q 155.4 71 157.05 69.55 Q 158.7 68.1 160.55 66.05 Q 162.4 64 163.85 62.1 Q 165.3 60.2 165.9 59.3 Q 167.1 57.5 168.65 54.8 Q 170.2 52.1 171.35 49.2 Q 172.5 46.3 172.5 44.3 Q 172.5 41.2 169.4 41.2 Q 167.6 41.2 165.6 42.8 Q 163.6 44.4 162.4 45.7 Q 161.1 47.3 159.45 50.3 Q 157.8 53.3 156.4 56.8 Q 155 60.3 154.05 63.5 Q 153.1 66.7 153.1 68.8 Q 153.1 69.4 153.35 70.2 Q 153.6 71 154.3 71 Z M 216.6 38.9 L 216.6 39.2 Q 216.5 39.5 216.3 39.45 Q 216.1 39.4 215.9 39.4 Q 214 39.4 212.35 41.5 Q 210.7 43.6 209.4 46.65 Q 208.1 49.7 207.2 52.5 Q 206.3 55.3 205.9 56.7 Q 203.7 64.6 200.45 72.75 Q 197.2 80.9 192 87.5 Q 190.8 89 189.5 90.45 Q 188.2 91.9 186.8 93.3 Q 182.9 97.3 178 100.1 Q 173.1 102.9 167.3 102.9 Q 166.7 102.9 165 102.4 Q 163.3 101.9 161.85 101.1 Q 160.4 100.3 160.4 99.5 Q 160.4 99.3 160.8 99.3 Q 161.4 99.5 161.7 99.5 Q 161.8 99.5 162.2 99.3 Q 161.8 98.7 161.8 98.1 Q 161.8 97.6 162.1 97.5 Q 161.9 96.9 161.6 96.35 Q 161.3 95.8 161 95.2 Q 160.8 94.8 160.1 93.95 Q 159.4 93.1 159.4 92.7 Q 159.4 92.4 159.6 91.8 Q 161.7 94.7 163.2 96.4 Q 164.7 98.1 166.8 98.85 Q 168.9 99.6 172.7 99.6 Q 177.1 99.6 180.95 96.4 Q 184.8 93.2 187.95 88.15 Q 191.1 83.1 193.55 77.3 Q 196 71.5 197.75 66.15 Q 199.5 60.8 200.4 57.3 Q 199.2 58.9 196.9 61.9 Q 194.6 64.9 191.8 67.95 Q 189 71 186.25 73.15 Q 183.5 75.3 181.4 75.3 Q 179.8 75.3 179.35 74.05 Q 178.9 72.8 178.9 71.5 Q 178.9 66.9 180.7 61.45 Q 182.5 56 185.4 51 Q 188.3 46 191.7 42.9 Q 195.5 39.6 200.2 39.6 Q 202.2 39.6 204.15 40.05 Q 206.1 40.5 208 41.3 Q 209.7 40.1 211.7 39.2 Q 213.7 38.3 215.8 38.3 Q 216.3 38.3 216.6 38.9 Z M 185.8 71 Q 186.9 71 188.55 69.55 Q 190.2 68.1 192.05 66.05 Q 193.9 64 195.35 62.1 Q 196.8 60.2 197.4 59.3 Q 198.6 57.5 200.15 54.8 Q 201.7 52.1 202.85 49.2 Q 204 46.3 204 44.3 Q 204 41.2 200.9 41.2 Q 199.1 41.2 197.1 42.8 Q 195.1 44.4 193.9 45.7 Q 192.6 47.3 190.95 50.3 Q 189.3 53.3 187.9 56.8 Q 186.5 60.3 185.55 63.5 Q 184.6 66.7 184.6 68.8 Q 184.6 69.4 184.85 70.2 Q 185.1 71 185.8 71 Z M 435.1 11.9 L 435.1 12.2 Q 435 12.5 434.8 12.45 Q 434.6 12.4 434.4 12.4 Q 433 12.4 431.15 14.5 Q 429.3 16.6 427.25 20 Q 425.2 23.4 423.2 27.45 Q 421.2 31.5 419.45 35.35 Q 417.7 39.2 416.45 42.25 Q 415.2 45.3 414.6 46.7 Q 413.9 48.6 412.7 51.6 Q 411.5 54.6 410.4 58 Q 409.3 61.4 408.5 64.4 Q 407.7 67.4 407.7 69.4 Q 407.7 70 407.9 70.8 Q 408.1 71.6 408.9 71.6 Q 409.4 71.6 409.75 71.4 Q 410.1 71.2 410.5 71 Q 412.8 69.7 414.95 67.45 Q 417.1 65.2 418.9 62.55 Q 420.7 59.9 421.8 57.7 Q 422 57.8 422 58.1 Q 422 58.8 420.85 60.55 Q 419.7 62.3 418.55 63.85 Q 417.4 65.4 417.3 65.8 Q 417.2 66.5 417 66.95 Q 416.8 67.4 416.4 68.1 Q 415.1 69.4 413.1 71.1 Q 411.1 72.8 408.95 74.05 Q 406.8 75.3 404.8 75.3 Q 401.7 75.3 401.7 72 Q 401.7 70 402.55 67.4 Q 403.4 64.8 404.55 62.2 Q 405.7 59.6 406.6 57.8 Q 405.5 59.4 403.25 62.3 Q 401 65.2 398.25 68.2 Q 395.5 71.2 392.8 73.25 Q 390.1 75.3 388 75.3 Q 386.4 75.3 385.95 74.05 Q 385.5 72.8 385.5 71.5 Q 385.5 66.8 387.3 61.4 Q 389.1 56 392 51.05 Q 394.9 46.1 398.3 42.9 Q 400.3 41.1 402.2 40.25 Q 404.1 39.4 406.9 39.4 Q 408.5 39.4 410.1 39.6 Q 411.7 39.8 413.3 40.1 Q 418.3 29 422.6 17.6 Q 423.5 15.3 425.6 13.8 Q 427.3 12.7 429.8 12 Q 432.3 11.3 434.2 11.3 Q 434.4 11.3 434.7 11.5 Q 435 11.7 435.1 11.9 Z M 392.4 71 Q 393.5 71 395.15 69.6 Q 396.8 68.2 398.65 66.15 Q 400.5 64.1 401.95 62.25 Q 403.4 60.4 404 59.5 Q 405.2 57.7 406.7 54.9 Q 408.2 52.1 409.35 49.2 Q 410.5 46.3 410.5 44.3 Q 410.5 41.2 407.5 41.2 Q 405.6 41.2 403.65 42.8 Q 401.7 44.4 400.5 45.7 Q 399.2 47.3 397.55 50.3 Q 395.9 53.3 394.5 56.8 Q 393.1 60.3 392.15 63.5 Q 391.2 66.7 391.2 68.8 Q 391.2 69.4 391.4 70.2 Q 391.6 71 392.4 71 Z M 115.1 72.2 L 115.1 71.8 Q 115.1 70.2 115.7 68.55 Q 116.3 66.9 116.8 65.4 Q 117.6 63.1 118.75 59.65 Q 119.9 56.2 120.85 52.7 Q 121.8 49.2 121.8 47 Q 121.8 46.1 121.55 45.3 Q 121.3 44.5 120.2 44.4 L 120.05 44.4 Q 119.9 44.4 119.9 44.3 Q 119.9 44 120.95 43.65 Q 122 43.3 123.5 42.9 Q 125 42.5 126.3 42.25 Q 127.6 42 128 42 Q 128.2 42 128.75 42.1 Q 129.3 42.2 129.3 42.7 Q 129.3 42.9 129.2 43 Q 128.2 45.4 126.9 48.7 Q 125.6 52 124.35 55.65 Q 123.1 59.3 122.3 62.75 Q 121.5 66.2 121.5 68.9 Q 121.5 69.4 121.7 69.9 Q 121.9 70.4 122.5 70.4 Q 123.6 70.4 125.25 69.1 Q 126.9 67.8 127.6 67.1 Q 131.3 63.2 134.3 57.6 Q 137.3 52 138.9 46.9 Q 139.4 45.4 139.9 44.75 Q 140.4 44.1 141.7 43.1 Q 143.3 42 145.25 41.1 Q 147.2 40.2 149.2 40.2 Q 149.4 40.2 149.7 40.45 Q 150 40.7 150 41 Q 150 41.2 149.75 41.25 Q 149.5 41.3 149.3 41.3 Q 148 41.3 146.6 42.9 Q 145.2 44.5 143.9 47 Q 142.6 49.5 141.55 52.2 Q 140.5 54.9 139.75 57.15 Q 139 59.4 138.7 60.5 Q 138.3 62.4 137.85 64.3 Q 137.4 66.2 137.4 68.2 Q 137.4 69 137.65 70.25 Q 137.9 71.5 139.1 71.5 Q 139.8 71.5 140.5 71 Q 142.7 69.7 144.7 67.45 Q 146.7 65.2 148.4 62.55 Q 150.1 59.9 151.1 57.7 Q 151.3 57.8 151.3 58.1 Q 151.3 58.9 150.25 60.65 Q 149.2 62.4 148.15 63.95 Q 147.1 65.5 147 65.8 Q 146.9 66.5 146.75 66.95 Q 146.6 67.4 146.3 68.1 Q 145.1 69.4 143.15 71.1 Q 141.2 72.8 139.1 74.1 Q 137 75.4 135.1 75.4 Q 133.3 75.4 132.7 74.35 Q 132.1 73.3 132.1 71.7 Q 132.1 69.1 132.95 65.85 Q 133.8 62.6 134.5 60.1 Q 131.9 64.1 128.5 68 Q 125.1 71.9 120.7 74.2 Q 120 74.6 119.1 74.95 Q 118.2 75.3 117.4 75.3 Q 116 75.3 115.55 74.3 Q 115.1 73.3 115.1 72.2 Z M 353.4 72.2 L 353.4 71.8 Q 353.4 70.2 354 68.55 Q 354.6 66.9 355.1 65.4 Q 355.9 63.1 357.05 59.65 Q 358.2 56.2 359.15 52.7 Q 360.1 49.2 360.1 47 Q 360.1 46.1 359.85 45.3 Q 359.6 44.5 358.5 44.4 L 358.35 44.4 Q 358.2 44.4 358.2 44.3 Q 358.2 44 359.25 43.65 Q 360.3 43.3 361.8 42.9 Q 363.3 42.5 364.6 42.25 Q 365.9 42 366.3 42 Q 366.5 42 367.05 42.1 Q 367.6 42.2 367.6 42.7 Q 367.6 42.9 367.5 43 Q 366.5 45.4 365.2 48.7 Q 363.9 52 362.65 55.65 Q 361.4 59.3 360.6 62.75 Q 359.8 66.2 359.8 68.9 Q 359.8 69.4 360 69.9 Q 360.2 70.4 360.8 70.4 Q 361.9 70.4 363.55 69.1 Q 365.2 67.8 365.9 67.1 Q 369.6 63.2 372.6 57.6 Q 375.6 52 377.2 46.9 Q 377.7 45.4 378.2 44.75 Q 378.7 44.1 380 43.1 Q 381.6 42 383.55 41.1 Q 385.5 40.2 387.5 40.2 Q 387.7 40.2 388 40.45 Q 388.3 40.7 388.3 41 Q 388.3 41.2 388.05 41.25 Q 387.8 41.3 387.6 41.3 Q 386.3 41.3 384.9 42.9 Q 383.5 44.5 382.2 47 Q 380.9 49.5 379.85 52.2 Q 378.8 54.9 378.05 57.15 Q 377.3 59.4 377 60.5 Q 376.6 62.4 376.15 64.3 Q 375.7 66.2 375.7 68.2 Q 375.7 69 375.95 70.25 Q 376.2 71.5 377.4 71.5 Q 378.1 71.5 378.8 71 Q 381 69.7 383 67.45 Q 385 65.2 386.7 62.55 Q 388.4 59.9 389.4 57.7 Q 389.6 57.8 389.6 58.1 Q 389.6 58.9 388.55 60.65 Q 387.5 62.4 386.45 63.95 Q 385.4 65.5 385.3 65.8 Q 385.2 66.5 385.05 66.95 Q 384.9 67.4 384.6 68.1 Q 383.4 69.4 381.45 71.1 Q 379.5 72.8 377.4 74.1 Q 375.3 75.4 373.4 75.4 Q 371.6 75.4 371 74.35 Q 370.4 73.3 370.4 71.7 Q 370.4 69.1 371.25 65.85 Q 372.1 62.6 372.8 60.1 Q 370.2 64.1 366.8 68 Q 363.4 71.9 359 74.2 Q 358.3 74.6 357.4 74.95 Q 356.5 75.3 355.7 75.3 Q 354.3 75.3 353.85 74.3 Q 353.4 73.3 353.4 72.2 Z M 212.6 75 Q 209.6 75 209.6 71.7 Q 209.6 69.4 210.8 65.3 Q 212 61.2 213.65 56.55 Q 215.3 51.9 216.95 47.75 Q 218.6 43.6 219.5 41.2 Q 220.8 37.7 222.7 33.1 Q 224.6 28.5 227.1 23.75 Q 229.6 19 232.75 15 Q 235.9 11 239.75 8.5 Q 243.6 6 248.2 6 Q 253.2 6 254.85 7.8 Q 256.5 9.6 256.5 11.5 Q 256.5 12.3 255.95 12.5 Q 255.4 12.7 255.4 12 Q 255.4 9.9 253.75 8.55 Q 252.1 7.2 249.7 7.2 Q 245.6 7.2 241.9 10.3 Q 238.2 13.4 235 18.3 Q 231.8 23.2 229.2 28.65 Q 226.6 34.1 224.65 38.95 Q 222.7 43.8 221.6 46.7 Q 220.9 48.6 219.7 51.65 Q 218.5 54.7 217.35 58.05 Q 216.2 61.4 215.4 64.45 Q 214.6 67.5 214.6 69.4 Q 214.6 70 214.8 70.8 Q 215 71.6 215.8 71.6 Q 216.3 71.6 216.65 71.4 Q 217 71.2 217.4 71 Q 219.7 69.7 221.85 67.45 Q 224 65.2 225.8 62.55 Q 227.6 59.9 228.8 57.7 Q 228.9 57.8 228.9 58.1 Q 228.9 58.9 227.75 60.6 Q 226.6 62.3 225.45 63.85 Q 224.3 65.4 224.2 65.8 Q 224.1 66.5 223.9 66.95 Q 223.7 67.4 223.4 68.1 Q 222.2 69.3 220.35 70.9 Q 218.5 72.5 216.5 73.75 Q 214.5 75 212.6 75 Z M 343.9 38.7 L 346.7 38.7 Q 347.7 36.3 348.75 33.9 Q 349.8 31.5 350.7 29.1 Q 351.2 27.8 351.85 26.95 Q 352.5 26.1 353.7 25.3 Q 355.4 24.2 357.9 23.5 Q 360.4 22.8 362.3 22.8 Q 362.5 22.8 362.75 23 Q 363 23.2 363.1 23.3 L 363.1 23.7 Q 363.1 24 362.85 23.9 Q 362.6 23.8 362.4 23.8 Q 361.2 23.8 359.6 25.75 Q 358 27.7 356.3 30.4 Q 354.6 33.1 353.35 35.55 Q 352.1 38 351.6 38.9 L 355.6 38.9 Q 357.2 38.9 358.8 38.85 Q 360.4 38.8 362 38.6 L 362.1 38.8 Q 362 38.8 362 38.9 Q 362 39 361.9 39 Q 361.6 39.3 360.4 39.95 Q 359.2 40.6 358 41.1 Q 356.8 41.6 356.3 41.7 Q 354.7 41.9 353.15 42 Q 351.6 42.1 350 42.1 Q 349 44.3 347.4 47.9 Q 345.8 51.5 344.2 55.55 Q 342.6 59.6 341.55 63.25 Q 340.5 66.9 340.5 69.3 Q 340.5 69.9 340.7 70.7 Q 340.9 71.5 341.7 71.5 Q 342.4 71.5 343.1 71 Q 345.3 69.7 347.45 67.45 Q 349.6 65.2 351.45 62.55 Q 353.3 59.9 354.4 57.7 Q 354.6 57.8 354.6 58.1 Q 354.6 58.7 353.9 59.85 Q 353.2 61 352.3 62.3 Q 351.4 63.6 350.65 64.6 Q 349.9 65.6 349.9 65.8 Q 349.8 66.6 349.55 66.95 Q 349.3 67.3 349 68.1 Q 347.7 69.3 345.7 71.05 Q 343.7 72.8 341.5 74.1 Q 339.3 75.4 337.4 75.4 Q 335.8 75.4 335.2 74.6 Q 334.6 73.8 334.6 72.3 Q 334.6 69.7 335.8 65.75 Q 337 61.8 338.8 57.35 Q 340.6 52.9 342.35 48.85 Q 344.1 44.8 345.2 42.2 Q 343.9 42.3 342.6 42.3 Q 341.3 42.3 339.9 42.4 Q 339.7 42.2 339.7 42 Q 339.7 41.4 340.5 40.6 Q 341.3 39.8 342.35 39.25 Q 343.4 38.7 343.9 38.7 Z M 452.8 72.6 L 452.8 72.4 Q 452.8 71.9 454.05 70.85 Q 455.3 69.8 456.7 68.75 Q 458.1 67.7 458.5 67.2 L 459.2 67 L 459.4 67.4 Q 458.7 68 458.7 68.7 Q 458.7 70.2 459.85 71.2 Q 461 72.2 462.55 72.7 Q 464.1 73.2 465.3 73.2 Q 466.7 73.2 468.85 72.4 Q 471 71.6 472.7 70.2 Q 474.4 68.8 474.4 67.1 Q 474.4 64.5 472.8 62.6 Q 471.2 60.7 469.1 59 Q 467 57.3 465.4 55.4 Q 463.8 53.5 463.8 51 Q 463.8 48.1 465.55 45.75 Q 467.3 43.4 470.05 41.75 Q 472.8 40.1 475.8 39.25 Q 478.8 38.4 481.3 38.4 Q 481.7 38.4 483.1 38.55 Q 484.5 38.7 485.75 39.05 Q 487 39.4 487 40 Q 487 40.2 486.9 40.2 L 486.7 40.2 L 485.9 40 Q 486.2 40.7 486.2 41.7 Q 486.2 42.6 485.8 44 Q 485.4 45.4 484.9 46.2 Q 484.8 46.4 483.9 47.5 Q 483 48.6 482.1 49.6 Q 481.2 50.6 481 50.6 L 480.9 50.4 Q 481.1 49.9 482.2 48.65 Q 483.3 47.4 483.3 45.4 Q 483.3 43.3 481.4 41.95 Q 479.5 40.6 477.5 40.6 Q 475.6 40.6 473.55 41.8 Q 471.5 43 470.15 44.9 Q 468.8 46.8 468.8 48.8 Q 468.8 50.6 470.55 52.55 Q 472.3 54.5 474.55 56.45 Q 476.8 58.4 478.55 60.3 Q 480.3 62.2 480.3 63.9 L 480.3 64.2 Q 480.3 66.7 478.1 68.85 Q 475.9 71 472.6 72.6 Q 469.3 74.2 465.95 75.05 Q 462.6 75.9 460.4 75.9 Q 458.5 75.9 456.2 75.2 Q 453.9 74.5 452.8 72.6 Z M 230.3 75.5 Q 224.5 75.5 224.5 69.6 Q 224.5 65.2 226.3 60.15 Q 228.1 55.1 231 50.45 Q 233.9 45.8 237.1 42.9 Q 240.9 39.6 246 39.6 Q 247.2 39.6 248.95 39.9 Q 250.7 40.2 252 41.05 Q 253.3 41.9 253.3 43.5 Q 253.3 45.8 251.6 48.75 Q 249.9 51.7 248.5 53.5 Q 249 53.6 249.75 53.8 Q 250.5 54 250.5 54.6 Q 250.5 54.9 250 54.9 Q 249.1 54.9 248.2 54.7 Q 247.3 54.5 246.4 54.5 Q 243 54.5 239.45 55.5 Q 235.9 56.5 232.7 57.6 Q 231.7 60 230.95 62.9 Q 230.2 65.8 230.2 68.4 Q 230.2 70.3 230.95 71.8 Q 231.7 73.3 233.9 73.3 Q 236.6 73.3 239.45 71.75 Q 242.3 70.2 244.95 67.75 Q 247.6 65.3 249.7 62.6 Q 251.8 59.9 253 57.7 Q 253.1 57.8 253.1 58.1 Q 253.1 59 252 60.55 Q 250.9 62.1 249.75 63.6 Q 248.6 65.1 248.4 65.8 Q 248.3 66.5 248.05 67 L 247.5 68.1 Q 245.8 69.8 242.65 71.55 Q 239.5 73.3 236.15 74.4 Q 232.8 75.5 230.3 75.5 Z M 234.1 54.4 Q 236.7 53.9 239.25 53.6 Q 241.8 53.3 244.4 53.3 L 246 53.3 Q 246.8 53.3 247.6 53.4 Q 248.4 51.7 248.95 49.7 Q 249.5 47.7 249.5 45.8 Q 249.5 44.3 248.9 42.75 Q 248.3 41.2 246.3 41.2 Q 244.4 41.2 242.45 42.8 Q 240.5 44.4 239.3 45.7 Q 237.7 47.6 236.45 49.85 Q 235.2 52.1 234.1 54.4 Z M 438.8 75.5 Q 433 75.5 433 69.6 Q 433 65.2 434.8 60.15 Q 436.6 55.1 439.5 50.45 Q 442.4 45.8 445.6 42.9 Q 449.4 39.6 454.5 39.6 Q 455.7 39.6 457.45 39.9 Q 459.2 40.2 460.5 41.05 Q 461.8 41.9 461.8 43.5 Q 461.8 45.8 460.1 48.75 Q 458.4 51.7 457 53.5 Q 457.5 53.6 458.25 53.8 Q 459 54 459 54.6 Q 459 54.9 458.5 54.9 Q 457.6 54.9 456.7 54.7 Q 455.8 54.5 454.9 54.5 Q 451.5 54.5 447.95 55.5 Q 444.4 56.5 441.2 57.6 Q 440.2 60 439.45 62.9 Q 438.7 65.8 438.7 68.4 Q 438.7 70.3 439.45 71.8 Q 440.2 73.3 442.4 73.3 Q 445.1 73.3 447.95 71.75 Q 450.8 70.2 453.45 67.75 Q 456.1 65.3 458.2 62.6 Q 460.3 59.9 461.5 57.7 Q 461.6 57.8 461.6 58.1 Q 461.6 59 460.5 60.55 Q 459.4 62.1 458.25 63.6 Q 457.1 65.1 456.9 65.8 Q 456.8 66.5 456.55 67 L 456 68.1 Q 454.3 69.8 451.15 71.55 Q 448 73.3 444.65 74.4 Q 441.3 75.5 438.8 75.5 Z M 442.6 54.4 Q 445.2 53.9 447.75 53.6 Q 450.3 53.3 452.9 53.3 L 454.5 53.3 Q 455.3 53.3 456.1 53.4 Q 456.9 51.7 457.45 49.7 Q 458 47.7 458 45.8 Q 458 44.3 457.4 42.75 Q 456.8 41.2 454.8 41.2 Q 452.9 41.2 450.95 42.8 Q 449 44.4 447.8 45.7 Q 446.2 47.6 444.95 49.85 Q 443.7 52.1 442.6 54.4 Z M 420.3 75.4 Q 418.7 75.4 418.1 74.6 Q 417.5 73.8 417.5 72.3 Q 417.5 69 418.85 64.3 Q 420.2 59.6 421.9 54.75 Q 423.6 49.9 424.6 46.1 Q 425 44.7 426.55 44.15 Q 428.1 43.6 429.2 42.8 Q 430.8 41.7 432.6 40.95 Q 434.4 40.2 436.4 40.2 Q 436.9 40.2 437.05 40.4 Q 437.2 40.6 437.2 40.7 Q 437.2 41.3 436.5 41.3 Q 435.1 41.3 433.6 42.95 Q 432.1 44.6 430.6 47.2 Q 429.1 49.8 427.9 52.6 Q 426.7 55.4 425.8 57.75 Q 424.9 60.1 424.6 61.2 Q 424.1 62.8 423.6 64.95 Q 423.1 67.1 423.1 68.9 Q 423.1 69.6 423.3 70.55 Q 423.5 71.5 424.5 71.5 Q 425.2 71.5 426 71 Q 428.2 69.7 430.35 67.45 Q 432.5 65.2 434.35 62.55 Q 436.2 59.9 437.3 57.7 Q 437.5 57.8 437.5 58.1 Q 437.5 58.7 436.8 59.85 Q 436.1 61 435.2 62.3 Q 434.3 63.6 433.55 64.6 Q 432.8 65.6 432.8 65.8 Q 432.7 66.6 432.5 66.95 Q 432.3 67.3 431.9 68.1 Q 430.7 69.3 428.7 71.05 Q 426.7 72.8 424.5 74.1 Q 422.3 75.4 420.3 75.4 Z M 437.2 32.1 Q 436.4 32.1 434.75 31.45 Q 433.1 30.8 433.1 29.8 Q 433.1 29.7 433.15 29.65 Q 433.2 29.6 433.2 29.5 Q 433.7 28.5 435.45 28.3 Q 437.2 28.1 438.1 27.7 Q 440.1 26.9 442 26.4 Q 443.9 25.9 445.6 24.6 Q 446 24.8 446 25 Q 446 25.4 445.15 26.1 Q 444.3 26.8 444 27.3 Q 443.6 27.9 442.25 29.05 Q 440.9 30.2 439.4 31.15 Q 437.9 32.1 437.2 32.1 Z"/></g></svg>